<?xml version="1.0" standalone="no"?>
<!DOCTYPE svg PUBLIC "-//W3C//DTD SVG 20010904//EN"
 "http://www.w3.org/TR/2001/REC-SVG-20010904/DTD/svg10.dtd">
<svg version="1.0" xmlns="http://www.w3.org/2000/svg"
 width="180.000000pt" height="180.000000pt" viewBox="0 0 180.000000 180.000000"
 preserveAspectRatio="xMidYMid meet">

<g transform="translate(0.000000,180.000000) scale(0.100000,-0.100000)"
fill="#000000" stroke="none">
<path d="M775 1626 c-94 -29 -185 -88 -254 -163 -92 -101 -131 -168 -138 -235
-2 -29 5 -128 16 -220 19 -151 23 -170 46 -192 l25 -26 -2 103 c-3 117 15 253
41 312 25 55 66 102 111 125 117 60 423 48 536 -21 52 -31 66 -90 43 -173 -8
-30 -8 -45 2 -62 18 -34 7 -39 -47 -20 -95 32 -148 16 -195 -60 -18 -30 -21
-45 -16 -91 3 -30 13 -63 21 -72 21 -23 20 -37 -2 -53 -9 -7 -25 -25 -35 -40
-19 -31 -72 -41 -61 -13 7 17 -22 20 -46 5 -13 -8 -12 -11 5 -24 20 -15 94
-49 128 -60 44 -14 8 -23 -90 -22 -82 0 -117 -4 -147 -17 -31 -13 -37 -20 -28
-29 9 -9 19 -8 44 6 25 15 50 19 125 18 101 -1 207 -25 200 -45 -3 -9 -46 -11
-168 -8 -90 2 -160 0 -156 -5 4 -5 56 -10 115 -11 59 -2 131 -4 160 -6 51 -2
54 0 92 41 22 24 40 52 40 62 0 11 -13 34 -30 52 -36 40 -40 25 -5 -22 14 -19
25 -35 25 -36 0 -2 -19 3 -42 10 -36 10 -43 16 -42 37 1 13 -4 47 -11 74 -8
28 -14 41 -14 29 -1 -25 -9 -34 -24 -28 -8 3 -12 35 -12 93 0 72 4 93 18 109
23 25 68 34 107 21 46 -16 36 -29 -17 -23 -36 4 -53 1 -68 -11 -11 -9 -15 -14
-9 -11 7 3 17 -1 24 -9 16 -20 56 -19 64 1 3 8 11 12 17 9 6 -4 8 -13 5 -21
-3 -8 -1 -14 4 -14 19 0 10 -27 -12 -38 -21 -10 -20 -11 7 -5 56 11 66 21 63
61 -2 28 -10 41 -37 59 -19 13 -48 23 -65 23 -24 0 -27 3 -16 10 8 5 34 10 58
10 35 0 49 -6 72 -29 38 -38 45 -71 27 -126 -15 -42 -10 -64 12 -51 30 19 47
-86 21 -133 l-13 -25 -17 35 c-21 39 -17 49 -45 -101 -10 -49 -30 -109 -47
-142 -34 -64 -68 -101 -75 -81 -3 8 -14 1 -30 -18 -40 -47 -76 -61 -159 -60
-79 0 -149 23 -190 62 -20 18 -22 19 -28 3 -4 -9 -5 -18 -4 -18 2 -1 21 -14
43 -28 60 -39 111 -51 201 -45 100 6 230 25 271 38 57 18 123 112 123 177 0 6
12 12 28 12 37 1 65 26 96 87 27 54 66 198 66 244 0 26 -36 69 -59 69 -15 0
-15 -1 28 163 39 148 40 209 4 285 -40 86 -147 187 -253 239 -47 23 -113 49
-146 57 -74 19 -223 20 -279 2z"/>
<path d="M634 1050 c-44 -17 -30 -25 45 -25 60 0 84 -5 114 -22 37 -22 37 -22
37 -2 0 47 -14 56 -97 57 -43 0 -88 -3 -99 -8z"/>
<path d="M624 948 l-27 -33 27 -3 c18 -2 33 3 42 15 11 13 17 15 20 6 8 -18
61 -16 67 2 8 20 -53 31 -83 15 -26 -14 -38 -6 -20 15 7 8 10 15 7 15 -3 0
-18 -15 -33 -32z"/>
<path d="M783 956 c4 -9 2 -16 -2 -16 -5 0 -7 -8 -4 -18 4 -18 -20 -36 -62
-45 -13 -3 -10 -5 10 -6 39 -1 95 33 95 59 0 10 -10 24 -22 31 -18 10 -20 9
-15 -5z"/>
<path d="M692 715 c-30 -25 -59 -81 -48 -92 3 -3 6 1 6 11 0 9 19 37 41 61 46
50 46 58 1 20z"/>
<path d="M475 685 c3 -16 13 -37 21 -45 24 -24 18 23 -7 51 l-20 24 6 -30z"/>
<path d="M955 481 l-80 -6 49 -12 c27 -6 54 -10 60 -8 6 2 23 6 39 9 15 4 27
11 27 16 0 6 -3 9 -7 8 -5 -1 -44 -4 -88 -7z"/>
<path d="M575 370 c10 -11 20 -20 23 -20 3 0 -3 9 -13 20 -10 11 -20 20 -23
20 -3 0 3 -9 13 -20z"/>
</g>
</svg>
